<svg height="512pt" viewBox="0 -19 512.001 512" width="512pt" xmlns="http://www.w3.org/2000/svg"><path d="m256 187.851562c26.824219-20.5625 60.371094-32.792968 96.78125-32.792968 21.488281 0 41.980469 4.265625 60.683594 11.984375.125-2.59375.191406-5.199219.191406-7.824219 0-87.933594-71.285156-159.21875-159.21875-159.21875s-159.21875 71.285156-159.21875 159.21875c0 3.0625.097656 6.101562.265625 9.121094 19.519531-8.535156 41.070313-13.28125 63.734375-13.28125 36.410156 0 69.957031 12.230468 96.78125 32.792968zm0 0" fill="#5aff6a"/><path d="m254.4375 0c-3.378906 0-6.730469.117188-10.058594.324219 83.246094 5.191406 149.160156 74.339843 149.160156 158.894531 0 .375-.011718.746094-.015624 1.121094 6.835937 1.804687 13.496093 4.042968 19.941406 6.703125.125-2.59375.191406-5.199219.191406-7.824219.003906-87.933594-71.28125-159.21875-159.21875-159.21875zm0 0" fill="#35ef43"/><path d="m413.464844 167.042969c-2.992188 61.90625-41.34375 114.523437-95.289063 138.113281.167969 3.019531.265625 6.058594.265625 9.121094 0 51.523437-24.480468 97.324218-62.441406 126.425781 26.824219 20.5625 60.371094 32.792969 96.78125 32.792969 87.933594 0 159.21875-71.285156 159.21875-159.21875 0-66.445313-40.703125-123.371094-98.535156-147.234375zm0 0" fill="#8fe7ff"/><path d="m435.691406 178.339844c33.714844 29.835937 54.976563 73.425781 54.976563 121.984375 0 89.945312-72.914063 162.859375-162.859375 162.859375-16.402344 0-32.238282-2.429688-47.167969-6.945313 21.65625 11.03125 46.171875 17.257813 72.140625 17.257813 87.933594 0 159.21875-71.285156 159.21875-159.21875 0-57.558594-30.546875-107.96875-76.308594-135.9375zm0 0" fill="#53daf9"/><path d="m256 187.851562c35.703125 27.371094 59.472656 69.519532 62.171875 117.304688 53.949219-23.589844 92.296875-76.210938 95.292969-138.113281-18.703125-7.71875-39.195313-11.984375-60.683594-11.984375-36.410156 0-69.957031 12.230468-96.78125 32.792968zm0 0" fill="#fff148"/><path d="m193.5625 314.277344c0-2.625.066406-5.230469.191406-7.824219-55.164062-22.761719-94.738281-75.617187-98.269531-138.113281-56.203125 24.582031-95.484375 80.667968-95.484375 145.9375 0 87.933594 71.285156 159.21875 159.21875 159.21875 36.410156 0 69.960938-12.230469 96.78125-32.792969-37.957031-29.101563-62.4375-74.902344-62.4375-126.425781zm0 0" fill="#ff5f5f"/><path d="m239.464844 426.105469c-26.019532 18.523437-57.839844 29.425781-92.210938 29.425781-51.476562 0-97.234375-24.433594-126.339844-62.324219 27.433594 47.964844 79.09375 80.289063 138.304688 80.289063 36.410156 0 69.957031-12.230469 96.78125-32.792969-5.847656-4.484375-11.367188-9.363281-16.535156-14.597656zm0 0" fill="#ff3939"/><path d="m193.753906 306.453125c2.339844-48.320313 26.222656-90.980469 62.246094-118.601563-26.824219-20.5625-60.371094-32.792968-96.78125-32.792968-22.664062 0-44.214844 4.746094-63.734375 13.28125 3.53125 62.5 43.105469 115.351562 98.269531 138.113281zm0 0" fill="#fc9047"/><path d="m318.4375 314.277344c0-3.0625-.09375-6.101563-.265625-9.121094-19.515625 8.539062-41.070313 13.285156-63.734375 13.285156-21.488281 0-41.980469-4.269531-60.683594-11.988281-.125 2.59375-.191406 5.199219-.191406 7.824219 0 51.523437 24.480469 97.324218 62.4375 126.425781 37.957031-29.101563 62.4375-74.902344 62.4375-126.425781zm0 0" fill="#c642b3"/><path d="m256 187.851562c-36.023438 27.617188-59.90625 70.28125-62.246094 118.601563 18.703125 7.71875 39.195313 11.984375 60.683594 11.984375 22.664062 0 44.21875-4.746094 63.734375-13.28125-2.699219-47.785156-26.46875-89.933594-62.171875-117.304688zm0 0" fill="#d8d8d8"/></svg>